<?xml version="1.0" encoding="utf-8"?>
<!-- Generator: Adobe Illustrator 16.0.0, SVG Export Plug-In . SVG Version: 6.00 Build 0)  -->
<!DOCTYPE svg PUBLIC "-//W3C//DTD SVG 1.1//EN" "http://www.w3.org/Graphics/SVG/1.1/DTD/svg11.dtd">
<svg version="1.1" id="Layer_1" xmlns="http://www.w3.org/2000/svg" xmlns:xlink="http://www.w3.org/1999/xlink" x="0px" y="0px"
	 width="403.333px" height="445.333px" viewBox="0 0 403.333 445.333" enable-background="new 0 0 403.333 445.333"
	 xml:space="preserve">
<g>
	<defs>
		<rect id="SVGID_1_" x="-198" y="-88.667" width="800" height="600"/>
	</defs>
	<clipPath id="SVGID_2_">
		<use xlink:href="#SVGID_1_"  overflow="visible"/>
	</clipPath>
	<g clip-path="url(#SVGID_2_)">
		<defs>
			<rect id="SVGID_3_" x="-198" y="-88.667" width="800" height="600"/>
		</defs>
		<clipPath id="SVGID_4_">
			<use xlink:href="#SVGID_3_"  overflow="visible"/>
		</clipPath>
		<path clip-path="url(#SVGID_4_)" fill="#F79857" d="M107.175,249.936c0,0-0.053,0.053-0.17,0.159
			c-6.941,6.718-19.832,15.351-21.322,24.984c-0.565,3.651-3.183,5.833-6.228,7.121c-5.056,2.161-11.294,1.885-11.294,1.885
			l-24.314-13.626l-5.163-7.335c1.437-9.112,3.034-26.932-4.95-49.69c-5.386-15.361-3.736-26.976-0.053-32.212
			c1.778-2.523,4.024-3.566,6.185-2.853c6.642,2.203,4.513,22.333,8.771,30.892c0,0,1.501-33.479,8.74-40.398
			c7.228-6.92,12.018,4.258,9.357,14.637s-2.416,26.975-2.416,26.975s8.271-44.305,17.852-43.752
			c9.58,0.543,5.961,14.243,3.513,19.896c-2.449,5.663-8.304,17.947-7.239,28.305c0,0,4.258-16.926,17.032-15.265
			c12.764,1.671,7.452,10.624,2.129,9.602s-8.516,13.445-7.984,18.182c0.532,4.748,6.387,5.376,10.113,0
			c0,0-5.791-8.09-1.597-14.009c4.184-5.919,9.038-4.173,9.038-4.173s4.875,9.623,7.76,12.817
			C117.82,225.271,114.094,243.197,107.175,249.936"/>
		<path clip-path="url(#SVGID_4_)" fill="#F26F3D" d="M74.709,250.668c-0.474-4.558,2.768-8.955,6.358-10.154
			c0,0-7.842,1.916-10.903,4.264c-1.045,0.802-0.84-7.019-4.276-9.385c0,0-1.347,5.452,0.581,10.805
			C68.398,251.55,74.709,250.668,74.709,250.668"/>
		<path clip-path="url(#SVGID_4_)" fill="#303846" d="M171.636,234.646c-38.433,21.29-143.82,52.898-87.401,184.478h294.459
			c9.772,0,18.081-7.104,19.621-16.752c6.183-38.737,13.307-133.137-57.832-158.646"/>
		<polyline clip-path="url(#SVGID_4_)" fill="#4F5766" points="340.343,248.932 368.008,312.636 346.338,329.504 370.572,342.267 
			344.424,419.333 288.621,419.333 300.331,329.925 331.484,244.121 		"/>
		<polyline clip-path="url(#SVGID_4_)" fill="#CFD1D5" points="300.331,329.925 288.884,419.333 260.943,419.333 272.653,313.057 
			287.513,296.844 		"/>
		<polygon clip-path="url(#SVGID_4_)" fill="#4F5766" points="149.973,245.172 132.138,312.635 155.349,339.716 132.138,359.299 
			155.349,419.333 210.911,419.333 171.636,234.751 		"/>
		<polyline clip-path="url(#SVGID_4_)" fill="#CFD1D5" points="190.701,330.475 210.912,419.333 261,419.333 261,307.78 
			218.364,300.505 		"/>
		<polyline clip-path="url(#SVGID_4_)" fill="#F2F1ED" points="273.419,296.532 300.33,329.503 321.557,275.48 		"/>
		<path clip-path="url(#SVGID_4_)" fill="#B73749" d="M284.235,420.087l-12.082,11.656l-11.104,10.698l-23.143-18.097
			c-11.848-15.968-7.302-84.096,7.899-101.479c0,0,14.02-23.016,28.912,0C289.621,345.88,284.235,420.087,284.235,420.087"/>
		<path clip-path="url(#SVGID_4_)" fill="#E04C60" d="M272.325,284.189c7.687,0.722,9.792-4.884,9.792-4.884
			s2.863,6.629,10.141,4.159c7.279-2.47-3.239,4.356-3.239,4.356"/>
		<path clip-path="url(#SVGID_4_)" fill="#E04C60" d="M227.585,300.294c0,0,6.289,10.509,18.227,22.569c0,0,12.886-7.207,28.91,0
			l12.791-26.44l-21.676-8.602l-31.439-8.517L227.585,300.294z"/>
		<path clip-path="url(#SVGID_4_)" fill="#F2F1ED" d="M171.636,234.333l19.05,95.722c0,0,28.342-16.608,43.712-33.566
			c15.369-16.957-6.812-13.026-6.812-13.026l-37.153-49.129H171.636z"/>
		<path clip-path="url(#SVGID_4_)" fill="#F5C33B" d="M366.782,63.333c8.307,18-2.735,36.72,0,59.43
			c2.736,22.709,2.16,19.654,2.16,19.654s5.08,6.002-2.607,14.255c-11.436,12.277-10.741,10.619-18.4,8.845s5.57-23.787-5.57-35.852
			c-11.14-12.064-3.118-30.219-14.621-36.2c-11.503-5.98-24.368-6.183-24.368-6.183l52.219-23.949H366.782z"/>
		<path clip-path="url(#SVGID_4_)" fill="#F26F3D" d="M162.617,206.576c0,0-5.29,22.815,16.082,32.495L191,243.909v-26.617
			l-12.388-24.212L162.617,206.576z"/>
		<path clip-path="url(#SVGID_4_)" fill="#F79857" d="M357.839,154.333c9.648,4,12.341,16.699,8.645,29.532
			c-3.786,13.143,1.59,36.143-18.838,29.554c-12.438-4.012-11.326-11.534-11.326-11.534l-0.026-47.552H357.839z"/>
		<g opacity="0.4" clip-path="url(#SVGID_4_)">
			<g>
				<defs>
					<rect id="SVGID_5_" x="336.293" y="154.333" width="31.781" height="60.248"/>
				</defs>
				<clipPath id="SVGID_6_">
					<use xlink:href="#SVGID_5_"  overflow="visible"/>
				</clipPath>
				<path clip-path="url(#SVGID_6_)" d="M357.839,154.333c9.648,4,12.341,16.699,8.645,29.532
					c-3.786,13.143,1.59,36.143-18.838,29.554c-12.438-4.012-11.326-11.534-11.326-11.534l-0.026-47.552H357.839z"/>
			</g>
		</g>
		<path clip-path="url(#SVGID_4_)" fill="#F26F3D" d="M181.753,217.031c0,0-0.856,34.863,28.189,64.669
			c29.046,29.806,63.476,14.832,63.476,14.832l-51.737-41.242l-25.512-35.064"/>
		<path clip-path="url(#SVGID_4_)" fill="#F79857" d="M355.088,192.111c0.935,20.917-6.465,26.804-14.285,51.139
			C336.347,257.131,328,270.268,318,280.018v0.011c-10,9.698-21.191,16.043-30.163,16.395c-10.528,0.415-23.269-0.139-37.977-6.229
			c-10.409-4.311-21.965-11.39-34.542-22.865c-30.351-27.678-33.512-58.665-33.512-77.358l-10.151-58.899l13.874-41.644
			l32.107-12.295l130.147,10.134c0,0,0.801,22.515,7.377,35.289c5.929,11.497-2.851,27.028-1.749,51.416
			c0.119,2.693,0.359,5.503,0.767,8.431C354.669,185.99,354.969,189.194,355.088,192.111"/>
		<path clip-path="url(#SVGID_4_)" fill="#F79857" d="M160.024,154.333c-10.478,4-13.403,16.699-9.388,29.532
			c4.111,13.143-1.728,36.143,20.459,29.554c13.508-4.012,12.302-11.534,12.302-11.534l0.029-47.552H160.024z"/>
		<path clip-path="url(#SVGID_4_)" fill="#F5C33B" d="M161.676,63.333c-9.526,18,3.138,36.72,0,59.43
			c-3.138,22.709-15.115,30.767-15.115,30.767s-2.28,4.561,15.628,3.142c17.909-1.42,12.32,10.619,21.103,8.845
			c8.784-1.774-6.388-23.787,6.388-35.852c12.776-12.064,3.576-30.219,16.769-36.2c13.193-5.98,27.948-6.183,27.948-6.183
			l-59.888-23.949H161.676z"/>
		<g opacity="0.4" clip-path="url(#SVGID_4_)">
			<g>
				<defs>
					<rect id="SVGID_7_" x="159.296" y="62.943" width="181.178" height="48.639"/>
				</defs>
				<clipPath id="SVGID_8_">
					<use xlink:href="#SVGID_7_"  overflow="visible"/>
				</clipPath>
				<path clip-path="url(#SVGID_8_)" d="M159.295,68.965c0,0,65.269,73.321,181.178,27.617l-71.751-14.124L161.677,62.943"/>
			</g>
		</g>
		<path clip-path="url(#SVGID_4_)" fill="#FFE18F" d="M261.543,97.007c-70.261-13.487-97.415-28.88-106.194-40.345
			c0,0,4.791-12.881,15.164-9.336c0,0,0.419-10.868-4.252-17.351c-1.749-2.438-4.229-4.258-7.726-4.642
			c0,0,17.806-9.761,35.142,2.832c1.8-8.867-2.991-23.238-2.991-23.238s18.629-4.791,27.65,10.645
			c4.556,7.797,23.778-17.213,63.174-3.013c32.627,11.752,74.992,12.466,95.677,27.294c0,0,0,0.011,0.012,0.011
			c5.498,3.939,9.463,8.867,11.308,15.276C397.298,85.649,331.815,110.494,261.543,97.007"/>
		<path clip-path="url(#SVGID_4_)" fill="#F5C33B" d="M261.543,97.007c-70.261-13.487-97.415-28.88-106.194-40.345
			c0,0,4.791-12.881,15.164-9.336c0,0,0.419-10.868-4.252-17.351c20.493,3.236,22.625,16.649,47.371,35.81
			c24.758,19.161,64.68,24.835,58.69,20.864c-5.988-3.96-9.175-20.162-9.175-20.162s20.757,12.775,35.934,18.459
			c15.163,5.674,7.977-3.555-7.188-16.212c-15.175-12.668-65.482-37.014-65.482-37.014c39.923,2.129,91.833,31.936,116.579,36.194
			c24.759,4.258,46.259-8.463,34.208-28.05c5.498,3.939,9.463,8.867,11.308,15.276C397.298,85.649,331.815,110.494,261.543,97.007"
			/>
		<g opacity="0.4" clip-path="url(#SVGID_4_)">
			<g>
				<defs>
					<rect id="SVGID_9_" x="160.443" y="170.762" width="11.19" height="23.287"/>
				</defs>
				<clipPath id="SVGID_10_">
					<use xlink:href="#SVGID_9_"  overflow="visible"/>
				</clipPath>
				<path clip-path="url(#SVGID_10_)" d="M171.314,183.886c-1.205-8.065,1.074-16.621-5.452-11.653
					c-6.526,4.968-6.526,15.613-3.332,19.161C165.725,194.943,173.267,196.951,171.314,183.886"/>
			</g>
		</g>
		<g opacity="0.4" clip-path="url(#SVGID_4_)">
			<g>
				<defs>
					<rect id="SVGID_11_" x="223.987" y="126.814" width="47.825" height="35.973"/>
				</defs>
				<clipPath id="SVGID_12_">
					<use xlink:href="#SVGID_11_"  overflow="visible"/>
				</clipPath>
				<path clip-path="url(#SVGID_12_)" fill="#FFC9A4" d="M271.784,148.37c-0.998,14.648-31.179,21.535-44.17,4.066
					c-1.277-1.713-2.383-3.651-3.283-5.844l-0.343-3.374l6.222-12.625l15.739-3.779c0,0,23.656,1.852,25.78,19.427
					C271.815,146.965,271.838,147.678,271.784,148.37"/>
			</g>
		</g>
		<path clip-path="url(#SVGID_4_)" fill="#FFFFFF" d="M264.168,145.229c-2.946,1.137-5.959,1.86-8.904,2.28
			c-5.28,0.753-10.349,0.523-14.498-0.019c-6.033-0.781-10.122-2.204-10.122-2.204c3.795-3.221,7.546-5.023,11.09-5.883
			c4.882-1.17,9.379-0.549,13.027,0.656C260.484,141.932,264.168,145.229,264.168,145.229"/>
		<path clip-path="url(#SVGID_4_)" fill="#303135" d="M255.932,145.073c-0.092,0.868-0.319,1.69-0.669,2.435
			c-5.28,0.753-10.347,0.523-14.497-0.018c-0.569-1.237-0.82-2.634-0.668-4.074c0.161-1.513,0.749-2.886,1.635-4.014
			c4.883-1.17,9.381-0.549,13.027,0.657C255.675,141.503,256.126,143.252,255.932,145.073"/>
		<g opacity="0.4" clip-path="url(#SVGID_4_)">
			<g>
				<defs>
					<rect id="SVGID_13_" x="227.614" y="148.37" width="44.17" height="14.417"/>
				</defs>
				<clipPath id="SVGID_14_">
					<use xlink:href="#SVGID_13_"  overflow="visible"/>
				</clipPath>
				<path clip-path="url(#SVGID_14_)" d="M271.784,148.37c-0.998,14.648-31.179,21.535-44.17,4.066
					c3.4,1.597,25.201,10.848,44.148-4.045C271.772,148.381,271.772,148.381,271.784,148.37"/>
			</g>
		</g>
		<g opacity="0.2" clip-path="url(#SVGID_4_)">
			<g>
				<defs>
					<rect id="SVGID_15_" x="260.913" y="185.923" width="46.645" height="41.284"/>
				</defs>
				<clipPath id="SVGID_16_">
					<use xlink:href="#SVGID_15_"  overflow="visible"/>
				</clipPath>
				<path clip-path="url(#SVGID_16_)" fill="#FFC9A4" d="M261.052,221.2c-0.703-10.29,1.39-25.148,3.688-31.897
					c2.299-6.75,8.385-1.306,8.385-1.306l3.078,3.422l18.713-0.951c0,0,15.337,15.119,12.226,33.206
					c-2.193,12.754-16.05-13.118-16.05-13.118l-7.95,3.79c0,0-5.856,1.531-6.938,3.307c-1.082,1.774-6.755,3.548-6.755,3.548"/>
			</g>
		</g>
		<polyline clip-path="url(#SVGID_4_)" fill="#303135" points="264.74,223.674 276.203,217.651 291.092,210.556 300.781,212.685 
			303.375,232.2 299.104,239.875 277.916,239.484 274.243,234.349 		"/>
		<path clip-path="url(#SVGID_4_)" fill="#ED615D" d="M261.052,221.2c12.073,0.355,12.872-6.387,18.062-11.71
			c5.191-5.322,13.192-4.613,13.192-4.613s8.138-3.118,14.085,9.468c3.853,8.152,0.751,10.758,0.751,10.758l-8.037,0.132
			c0,0-0.028-7.509-3.621-10.385c0,0-3.993,2.167-7.985,0C287.498,214.851,273.125,230.093,261.052,221.2"/>
		<path clip-path="url(#SVGID_4_)" fill="#F26F3D" d="M264.74,223.679c2.977,6.076-5.189,14.554,1.598,24.844
			c6.787,10.291,25.41,7.661,32.767,0c7.357-7.66-13.531-5.677-13.531-5.677l-13.249-9.935l-3.696-7.677"/>
		<path clip-path="url(#SVGID_4_)" fill="#FFFFFF" d="M272.315,229.888c9.786,1.048,23.397,1.033,29.235,0c0,0,2.123,9.867,0,10.452
			c-2.123,0.584-5.869,1.023-9.616,2.053c-3.745,1.028-15.452,0-15.452,0l-6.558-7.711"/>
		<path clip-path="url(#SVGID_4_)" fill="#F26F3D" d="M265.841,186.834c0,0-0.045-0.385,0.134-1.111
			c0.104-0.358,0.255-0.81,0.59-1.303c0.304-0.516,0.879-1.011,1.672-1.422c1.66-0.75,3.987-0.599,6.108,0.092
			c0.271,0.084,0.558,0.162,0.831,0.258c0.262,0.108,0.526,0.218,0.795,0.329c0.533,0.228,1.118,0.445,1.635,0.729
			c0.534,0.277,1.083,0.562,1.644,0.854l0.026,0.013c0.083,0.054-0.082-0.057-0.057-0.041l0.049,0.025l0.101,0.05l0.2,0.101
			l0.403,0.204c0.271,0.137,0.544,0.275,0.82,0.415c0.58,0.323,1.053,0.456,1.556,0.659c0.252,0.093,0.492,0.2,0.754,0.287
			c0.27,0.073,0.543,0.148,0.818,0.222c0.273,0.071,0.545,0.164,0.818,0.222c0.271,0.044,0.545,0.089,0.82,0.134
			c0.549,0.135,1.088,0.092,1.622,0.135c2.133-0.007,4.03-0.735,5.745-2.174c0.833-0.742,1.631-1.606,2.325-2.6
			c0.322-0.516,0.668-1.02,0.938-1.579l0.222-0.407l0.028-0.051c-0.043,0.088,0.116-0.231-0.094,0.19l0.015-0.032l0.054-0.129
			l0.109-0.258l0.218-0.516c0.06-0.156,0.181-0.387,0.168-0.456c0.03-0.203,0.072-0.399,0.127-0.594
			c0.054-0.202,0.074-0.537,0.118-0.798c0.052-0.271,0.074-0.56,0.072-0.861c0.007-0.297,0.046-0.585,0.038-0.891
			c-0.015-1.219-0.161-2.494-0.428-3.78c-0.505-2.58-1.459-5.189-2.624-7.623c-0.596-1.216-1.271-2.369-1.966-3.462l-0.551-0.779
			l-0.068-0.097l-0.034-0.049l-0.149-0.197l-0.156-0.23l-0.312-0.46l-0.311-0.458c-0.104-0.152-0.226-0.387-0.335-0.576
			l-0.658-1.199c-1.455-2.935-2.243-5.714-2.802-8.412c-0.531-2.69-0.753-5.257-0.776-7.624c0.05-2.377,0.237-4.544,0.698-6.441
			c0.168-0.944,0.506-1.823,0.754-2.616c0.287-0.795,0.653-1.503,0.927-2.137c0.68-1.249,1.304-2.162,1.842-2.72
			c0.506-0.559,0.775-0.857,0.775-0.857s-0.12,0.366-0.347,1.053c-0.289,0.647-0.436,1.687-0.666,2.928
			c-0.038,0.646-0.138,1.336-0.138,2.1c0.056,0.777-0.043,1.576,0.084,2.461c0.037,0.436,0.074,0.886,0.113,1.349
			c0.051,0.462,0.143,0.94,0.214,1.425c0.117,0.968,0.37,1.988,0.58,3.038c0.515,2.103,1.181,4.351,2.059,6.659
			c0.869,2.289,1.983,4.708,3.322,6.818l0.466,0.667c0.085,0.12,0.129,0.209,0.245,0.354l0.347,0.436l0.349,0.437l0.176,0.22
			c-0.043-0.055,0.127,0.162-0.092-0.117l0.026,0.031l0.052,0.062l0.104,0.124l0.831,1.001c1.045,1.35,1.981,2.755,2.772,4.221
			c1.62,2.917,2.796,6.048,3.501,9.365c0.316,1.666,0.497,3.383,0.483,5.15c-0.051,0.897-0.061,1.778-0.266,2.698
			c-0.099,0.47-0.146,0.879-0.297,1.394c-0.157,0.521-0.328,1.039-0.509,1.55c-0.096,0.295-0.17,0.393-0.253,0.582l-0.244,0.507
			l-0.121,0.253l-0.061,0.127l-0.016,0.032c-0.221,0.442-0.073,0.143-0.129,0.251l-0.043,0.071l-0.352,0.565
			c-0.453,0.755-1.009,1.47-1.549,2.178c-1.141,1.396-2.488,2.687-4.06,3.768c-1.553,1.093-3.417,1.932-5.347,2.4
			c-1.936,0.511-3.957,0.506-5.771,0.275c-0.891-0.176-1.79-0.303-2.573-0.599c-0.4-0.132-0.796-0.263-1.189-0.393
			c-0.382-0.141-0.725-0.328-1.081-0.49c-0.349-0.168-0.694-0.334-1.038-0.499c-0.336-0.183-0.658-0.393-0.979-0.586
			c-0.629-0.394-1.31-0.784-1.726-1.16c-0.5-0.396-0.989-0.784-1.469-1.163c-0.414-0.345-0.819-0.682-1.213-1.011
			c-0.389-0.355-0.796-0.614-1.185-0.903c-0.392-0.295-0.776-0.558-1.159-0.771c-1.524-0.935-2.961-1.433-4.133-1.291
			c-1.138,0.199-1.997,0.936-2.397,1.51C265.989,186.464,265.841,186.834,265.841,186.834"/>
		<path clip-path="url(#SVGID_4_)" fill="#F26F3D" d="M320.158,258.664c0,0,3.842,10.624-2.158,21.354v0.011
			c-10,9.697-21.198,16.042-30.169,16.393c-10.517,0.415-23.26-0.138-37.969-6.227c-4.719-7.164-3.903-24.729-3.903-24.729
			s11.342,22.218,39.789,19.161C314.194,281.583,320.158,258.664,320.158,258.664"/>
		<path clip-path="url(#SVGID_4_)" fill="#F79857" d="M349.147,277.464c0.012-0.012,0.023-0.021,0.036-0.021
			C349.207,277.432,349.207,277.442,349.147,277.464"/>
		<g opacity="0.4" clip-path="url(#SVGID_4_)">
			<g>
				<defs>
					<rect id="SVGID_17_" x="256.261" y="256.219" width="50.881" height="16.062"/>
				</defs>
				<clipPath id="SVGID_18_">
					<use xlink:href="#SVGID_17_"  overflow="visible"/>
				</clipPath>
				<path clip-path="url(#SVGID_18_)" fill="#FFC9A4" d="M272.325,258.662c-11.133-2.663-20.46,0.684-13.873,7.603
					c6.588,6.92,28.698,7.451,38.903,3.726s14.437-15.435,2.738-13.572C288.397,258.281,281.706,260.906,272.325,258.662"/>
			</g>
		</g>
		<path clip-path="url(#SVGID_4_)" fill="#F26F3D" d="M202.569,170.242c7.709,16.653,20.867,21.369,29.81,31.982
			c8.942,10.612,4.357,18.623,4.357,18.623s-5.814-12.635-22.91-21.846C196.731,189.792,196.056,173.676,202.569,170.242"/>
		<path clip-path="url(#SVGID_4_)" fill="#F26F3D" d="M355.088,192.111c-1.461,3.279-3.845,6.376-7.365,8.772
			c-11.679,7.952-14.877,19.97-14.877,19.97s-3.977-8.144,1.665-17.99c5.558-9.719,14.589-13.541,18.9-28.891
			c0.12,2.693,0.359,5.503,0.768,8.431C354.669,185.99,354.969,189.194,355.088,192.111"/>
		<g opacity="0.4" clip-path="url(#SVGID_4_)">
			<g>
				<defs>
					<rect id="SVGID_19_" x="274.722" y="232.997" width="23.289" height="7.336"/>
				</defs>
				<clipPath id="SVGID_20_">
					<use xlink:href="#SVGID_19_"  overflow="visible"/>
				</clipPath>
				<path clip-path="url(#SVGID_20_)" d="M276.461,232.997c8.101,4.255,21.55,1.657,21.55,1.657l-1.33,5.679H281.51l-6.788-3.063"/>
			</g>
		</g>
		<path clip-path="url(#SVGID_4_)" fill="#DB4D4D" d="M310.244,230.284c0,4.489-3.932,13.271-11.14,18.235
			c-9.197,6.334-30.376,3.556-30.482-9.581c-0.024-3.8-0.36-6.686-0.827-8.846c-1.138-5.344-5.434-8.028-5.434-8.028
			c7.989,0,11.566,5.526,13.842,10.849c2.275,5.323,7.307,6.025,16.134,4.823c8.815-1.203,6.768-12.498,6.768-12.498l8.037-0.138
			C307.142,225.101,310.244,226.313,310.244,230.284"/>
		<g opacity="0.2" clip-path="url(#SVGID_4_)">
			<g>
				<defs>
					<rect id="SVGID_21_" x="271.536" y="234.494" width="34.695" height="14.438"/>
				</defs>
				<clipPath id="SVGID_22_">
					<use xlink:href="#SVGID_21_"  overflow="visible"/>
				</clipPath>
				<path clip-path="url(#SVGID_22_)" fill="#FFFFFF" d="M305.279,234.951c0.278-0.473,1.102-0.168,0.928,0.342
					c-1.34,3.929-4.188,8.001-8.619,10.969c-7.775,5.206-25.808,2.898-25.898-7.808c-0.009-1.287-0.062-2.445-0.152-3.485
					c-0.043-0.502,0.733-0.664,0.954-0.2c2.679,5.624,6.532,9.956,15.267,9.473C296.609,243.747,301.701,241.024,305.279,234.951"/>
			</g>
		</g>
		<g opacity="0.2" clip-path="url(#SVGID_4_)">
			<g>
				<defs>
					<rect id="SVGID_23_" x="274.722" y="206.346" width="27.773" height="11.395"/>
				</defs>
				<clipPath id="SVGID_24_">
					<use xlink:href="#SVGID_23_"  overflow="visible"/>
				</clipPath>
				<path clip-path="url(#SVGID_24_)" fill="#FFFFFF" d="M302.494,211.354c-3.17-6.564-10.305-4.789-10.305-4.789
					c-10.381-0.619-14.174,8.958-17.467,11.176c4.362-0.246,9.922-4.033,13.72-6.688c0.73,0.809,2.125,1.365,3.747,1.365
					c2.24,0,4.059-1.051,4.254-2.386C299.744,210.954,302.494,211.354,302.494,211.354"/>
			</g>
		</g>
		<path clip-path="url(#SVGID_4_)" fill="#303846" d="M142.025,249.354C80.192,276.336,4.169,322.252,7.362,347.8
			c3.194,25.548,14.067,71.533,14.067,71.533H111"/>
		<polyline clip-path="url(#SVGID_4_)" fill="#F2F1ED" points="70.231,277.206 85.681,275.076 79.647,314.188 33.735,356.464 		"/>
		<polygon clip-path="url(#SVGID_4_)" fill="#CFD1D5" points="31.15,282.375 38.68,263.126 70.231,277.205 58.757,315.243 
			22.71,301.048 		"/>
		<path clip-path="url(#SVGID_4_)" fill="#303846" d="M57.373,289.535c0,3.011-2.441,5.451-5.451,5.451
			c-3.011,0-5.452-2.44-5.452-5.451s2.441-5.451,5.452-5.451C54.932,284.084,57.373,286.524,57.373,289.535"/>
		<path clip-path="url(#SVGID_4_)" fill="#4F5766" d="M85.683,332.829c0,21.461-2.15,47.689-10.432,68.917
			c-3.62,7.792-8.559,13.593-14.18,17.659c-7.142,5.163-15.392,7.506-23.419,7.506c-16.383,0-31.829-9.763-35.054-25.165
			c-5.589-99.97,29.881-122.761,29.881-122.761s-1.384,10.783,6.6,19.534c9.719,10.656,20.417,9.485,28.848,5.471
			c8.921-4.235,15.297-11.645,15.297-11.645S85.683,309.846,85.683,332.829"/>
		<path clip-path="url(#SVGID_4_)" fill="#303846" d="M61.071,419.405c-7.143,5.163-15.393,7.505-23.419,7.505
			c-16.383,0-31.829-9.762-35.055-25.165c-5.588-99.969,29.881-122.76,29.881-122.76s-1.384,10.784,6.6,19.534
			C30.477,325.346,9.219,407.845,57.377,418.49C58.676,418.777,59.9,419.075,61.071,419.405"/>
		<path clip-path="url(#SVGID_4_)" fill="#F26F3D" d="M107.005,250.095c-6.941,6.717-19.832,15.35-21.322,24.984
			c-0.564,3.65-3.183,5.834-6.228,7.122c-5.056,2.161-11.294,1.884-11.294,1.884l-24.314-13.626l-5.162-7.334
			c1.437-9.113,3.033-26.934-4.95-49.692c-5.387-15.361-3.737-26.975-0.054-32.212l0.054-0.053
			c-3.449,14.307,10.634,37.354,12.731,48.723c2.108,11.358-6.723,31.356,13.242,39.922
			C77.848,277.597,105.163,251.798,107.005,250.095"/>
		<path clip-path="url(#SVGID_4_)" fill="#F26F3D" d="M221.664,146.241c0,0,11.372-10.619,16.225-11.853
			c4.851-1.234,32.03,5.927,32.03,5.927l-2.194-4.069l-31.885-11.748l-14.194,14.28"/>
		<path clip-path="url(#SVGID_4_)" fill="#FFE18F" d="M233.146,126.652l-11.48,13.927c0,0-0.66-16.278,5.777-24.084
			c6.438-7.807,45.558,7.851,45.558,7.851v10.645C273,134.991,237.575,121.294,233.146,126.652"/>
		<path clip-path="url(#SVGID_4_)" fill="#F5C33B" d="M233.146,129.846l-11.48,13.927c0,0-0.66-16.278,5.777-24.084
			C233.88,111.882,273,127.54,273,127.54v10.645C273,138.185,237.575,124.488,233.146,129.846"/>
		<g opacity="0.4" clip-path="url(#SVGID_4_)">
			<g>
				<defs>
					<rect id="SVGID_25_" x="300.282" y="126.814" width="39.639" height="35.973"/>
				</defs>
				<clipPath id="SVGID_26_">
					<use xlink:href="#SVGID_25_"  overflow="visible"/>
				</clipPath>
				<path clip-path="url(#SVGID_26_)" fill="#FFC9A4" d="M300.306,148.37c0.827,14.648,25.842,21.535,36.61,4.066
					c1.058-1.713,1.974-3.651,2.721-5.844l0.284-3.374l-5.157-12.625l-13.045-3.779c0,0-19.607,1.852-21.369,19.427
					C300.279,146.965,300.262,147.678,300.306,148.37"/>
			</g>
		</g>
		<path clip-path="url(#SVGID_4_)" fill="#FFFFFF" d="M306.618,145.229c2.443,1.137,4.938,1.86,7.381,2.28
			c4.376,0.753,8.576,0.523,12.016-0.019c5.001-0.781,8.391-2.204,8.391-2.204c-3.146-3.221-6.255-5.023-9.192-5.883
			c-4.046-1.17-7.773-0.549-10.797,0.656C309.672,141.932,306.618,145.229,306.618,145.229"/>
		<path clip-path="url(#SVGID_4_)" fill="#303135" d="M313.444,145.073c0.076,0.868,0.266,1.69,0.555,2.435
			c4.376,0.753,8.577,0.523,12.016-0.018c0.472-1.237,0.68-2.634,0.553-4.074c-0.133-1.513-0.62-2.886-1.354-4.014
			c-4.046-1.17-7.774-0.549-10.797,0.657C313.658,141.503,313.285,143.252,313.444,145.073"/>
		<g opacity="0.4" clip-path="url(#SVGID_4_)">
			<g>
				<defs>
					<rect id="SVGID_27_" x="300.306" y="148.37" width="36.61" height="14.417"/>
				</defs>
				<clipPath id="SVGID_28_">
					<use xlink:href="#SVGID_27_"  overflow="visible"/>
				</clipPath>
				<path clip-path="url(#SVGID_28_)" d="M300.306,148.37c0.827,14.648,25.842,21.535,36.61,4.066
					c-2.819,1.597-20.888,10.848-36.592-4.045C300.315,148.381,300.315,148.381,300.306,148.37"/>
			</g>
		</g>
		<path clip-path="url(#SVGID_4_)" fill="#F26F3D" d="M341.847,146.241c0,0-9.426-10.619-13.447-11.853
			c-4.021-1.234-26.548,5.927-26.548,5.927l1.819-4.069l26.427-11.748l11.765,14.28"/>
		<path clip-path="url(#SVGID_4_)" fill="#FFE18F" d="M332.182,126.652l9.591,13.927c0,0,0.434-16.278-4.901-24.084
			c-5.336-7.807-37.871,7.851-37.871,7.851v10.645C299,134.991,328.511,121.294,332.182,126.652"/>
		<path clip-path="url(#SVGID_4_)" fill="#F5C33B" d="M332.182,129.846l9.591,13.927c0,0,0.434-16.278-4.901-24.084
			C331.535,111.882,299,127.54,299,127.54v10.645C299,138.185,328.511,124.488,332.182,129.846"/>
	</g>
</g>
</svg>
